<mxfile host="app.diagrams.net" agent="Mozilla/5.0 (Windows NT 10.0; Win64; x64) AppleWebKit/537.36 (KHTML, like Gecko) Chrome/132.0.0.0 Safari/537.36 Edg/132.0.0.0" version="26.0.6">
  <diagram name="Page-1" id="TJs-7nuz9J66ABSabgTB">
    <mxGraphModel dx="738" dy="510" grid="1" gridSize="10" guides="1" tooltips="1" connect="1" arrows="1" fold="1" page="1" pageScale="1" pageWidth="850" pageHeight="1100" math="0" shadow="0">
      <root>
        <mxCell id="0" />
        <mxCell id="1" parent="0" />
        <mxCell id="WSXo75BMICnkvVFDg_3Q-3" style="edgeStyle=orthogonalEdgeStyle;rounded=0;orthogonalLoop=1;jettySize=auto;html=1;entryX=0;entryY=0.5;entryDx=0;entryDy=0;curved=1;exitX=0.5;exitY=0;exitDx=0;exitDy=0;endArrow=none;endFill=0;" parent="1" source="WSXo75BMICnkvVFDg_3Q-1" target="bQh46Ddm-5ruJ5UZl0Re-3" edge="1">
          <mxGeometry relative="1" as="geometry">
            <mxPoint x="167" y="144.79999999999995" as="targetPoint" />
          </mxGeometry>
        </mxCell>
        <mxCell id="WSXo75BMICnkvVFDg_3Q-1" value="ANW Platform" style="rounded=0;whiteSpace=wrap;html=1;fillColor=default;fontColor=#000000;fontStyle=0;gradientColor=none;" parent="1" vertex="1">
          <mxGeometry x="40" y="289" width="120" height="60" as="geometry" />
        </mxCell>
        <mxCell id="WSXo75BMICnkvVFDg_3Q-79" style="edgeStyle=orthogonalEdgeStyle;rounded=0;orthogonalLoop=1;jettySize=auto;html=1;entryX=0;entryY=0.5;entryDx=0;entryDy=0;exitX=1;exitY=0.5;exitDx=0;exitDy=0;curved=1;" parent="1" source="bQh46Ddm-5ruJ5UZl0Re-3" target="bQh46Ddm-5ruJ5UZl0Re-5" edge="1">
          <mxGeometry relative="1" as="geometry">
            <mxPoint x="247" y="174.79999999999995" as="sourcePoint" />
            <mxPoint x="316.5400000000002" y="144.55999999999995" as="targetPoint" />
          </mxGeometry>
        </mxCell>
        <mxCell id="WSXo75BMICnkvVFDg_3Q-80" style="edgeStyle=orthogonalEdgeStyle;rounded=0;orthogonalLoop=1;jettySize=auto;html=1;entryX=0;entryY=0.5;entryDx=0;entryDy=0;curved=1;exitX=1;exitY=0.5;exitDx=0;exitDy=0;" parent="1" source="bQh46Ddm-5ruJ5UZl0Re-3" target="bQh46Ddm-5ruJ5UZl0Re-4" edge="1">
          <mxGeometry relative="1" as="geometry">
            <mxPoint x="247" y="174.79999999999995" as="sourcePoint" />
            <mxPoint x="316.5400000000002" y="98.84000000000003" as="targetPoint" />
          </mxGeometry>
        </mxCell>
        <mxCell id="WSXo75BMICnkvVFDg_3Q-81" style="edgeStyle=orthogonalEdgeStyle;rounded=0;orthogonalLoop=1;jettySize=auto;html=1;entryX=0;entryY=0.5;entryDx=0;entryDy=0;curved=1;exitX=1;exitY=0.5;exitDx=0;exitDy=0;" parent="1" source="bQh46Ddm-5ruJ5UZl0Re-3" target="bQh46Ddm-5ruJ5UZl0Re-6" edge="1">
          <mxGeometry relative="1" as="geometry">
            <mxPoint x="247" y="174.79999999999995" as="sourcePoint" />
            <mxPoint x="317.23" y="196.32000000000005" as="targetPoint" />
          </mxGeometry>
        </mxCell>
        <mxCell id="WSXo75BMICnkvVFDg_3Q-95" style="rounded=0;orthogonalLoop=1;jettySize=auto;html=1;entryX=0;entryY=0.5;entryDx=0;entryDy=0;exitX=1;exitY=0.5;exitDx=0;exitDy=0;endArrow=none;endFill=0;" parent="1" source="WSXo75BMICnkvVFDg_3Q-1" target="bQh46Ddm-5ruJ5UZl0Re-2" edge="1">
          <mxGeometry relative="1" as="geometry">
            <mxPoint x="167" y="313.79999999999995" as="targetPoint" />
          </mxGeometry>
        </mxCell>
        <mxCell id="WSXo75BMICnkvVFDg_3Q-105" style="edgeStyle=orthogonalEdgeStyle;rounded=0;orthogonalLoop=1;jettySize=auto;html=1;entryX=1;entryY=0.5;entryDx=0;entryDy=0;curved=1;startArrow=classic;startFill=1;endArrow=none;endFill=0;exitX=0;exitY=0.5;exitDx=0;exitDy=0;" parent="1" source="bQh46Ddm-5ruJ5UZl0Re-21" target="bQh46Ddm-5ruJ5UZl0Re-1" edge="1">
          <mxGeometry relative="1" as="geometry">
            <mxPoint x="230" y="585" as="sourcePoint" />
            <mxPoint x="170" y="510" as="targetPoint" />
          </mxGeometry>
        </mxCell>
        <mxCell id="WSXo75BMICnkvVFDg_3Q-106" style="edgeStyle=orthogonalEdgeStyle;rounded=0;orthogonalLoop=1;jettySize=auto;html=1;entryX=0;entryY=0.5;entryDx=0;entryDy=0;curved=1;exitX=0.5;exitY=1;exitDx=0;exitDy=0;endArrow=none;endFill=0;" parent="1" source="WSXo75BMICnkvVFDg_3Q-1" target="bQh46Ddm-5ruJ5UZl0Re-1" edge="1">
          <mxGeometry relative="1" as="geometry">
            <mxPoint x="167" y="474.79999999999995" as="targetPoint" />
          </mxGeometry>
        </mxCell>
        <mxCell id="WSXo75BMICnkvVFDg_3Q-107" style="edgeStyle=orthogonalEdgeStyle;rounded=0;orthogonalLoop=1;jettySize=auto;html=1;entryX=1;entryY=0.5;entryDx=0;entryDy=0;startArrow=classic;startFill=1;endArrow=none;endFill=0;curved=1;exitX=0;exitY=0.5;exitDx=0;exitDy=0;" parent="1" source="bQh46Ddm-5ruJ5UZl0Re-17" target="bQh46Ddm-5ruJ5UZl0Re-1" edge="1">
          <mxGeometry relative="1" as="geometry">
            <mxPoint x="370" y="458.0344827586208" as="sourcePoint" />
            <mxPoint x="247" y="449.79999999999995" as="targetPoint" />
          </mxGeometry>
        </mxCell>
        <mxCell id="WSXo75BMICnkvVFDg_3Q-109" style="edgeStyle=orthogonalEdgeStyle;rounded=0;orthogonalLoop=1;jettySize=auto;html=1;entryX=1;entryY=0.5;entryDx=0;entryDy=0;startArrow=classic;startFill=1;endArrow=none;endFill=0;curved=1;exitX=0;exitY=0.5;exitDx=0;exitDy=0;" parent="1" source="bQh46Ddm-5ruJ5UZl0Re-18" target="bQh46Ddm-5ruJ5UZl0Re-1" edge="1">
          <mxGeometry relative="1" as="geometry">
            <mxPoint x="360" y="505" as="sourcePoint" />
            <mxPoint x="247" y="449.79999999999995" as="targetPoint" />
          </mxGeometry>
        </mxCell>
        <mxCell id="bQh46Ddm-5ruJ5UZl0Re-1" value="Admin" style="rounded=1;whiteSpace=wrap;html=1;fillColor=default;fontColor=#000000;fontStyle=0;gradientColor=none;" vertex="1" parent="1">
          <mxGeometry x="200" y="420" width="60" height="60" as="geometry" />
        </mxCell>
        <mxCell id="bQh46Ddm-5ruJ5UZl0Re-2" value="Report" style="rounded=1;whiteSpace=wrap;html=1;fillColor=default;fontColor=#000000;fontStyle=0;gradientColor=none;" vertex="1" parent="1">
          <mxGeometry x="200" y="289" width="60" height="60" as="geometry" />
        </mxCell>
        <mxCell id="bQh46Ddm-5ruJ5UZl0Re-3" value="Collect" style="rounded=1;whiteSpace=wrap;html=1;fillColor=default;fontColor=#000000;fontStyle=0;gradientColor=none;" vertex="1" parent="1">
          <mxGeometry x="200" y="160" width="60" height="60" as="geometry" />
        </mxCell>
        <mxCell id="bQh46Ddm-5ruJ5UZl0Re-4" value="FINA Competitions" style="rounded=1;whiteSpace=wrap;html=1;fillColor=default;fontColor=#000000;fontStyle=0;gradientColor=none;align=left;spacingLeft=3;" vertex="1" parent="1">
          <mxGeometry x="320" y="125" width="200" height="30" as="geometry" />
        </mxCell>
        <mxCell id="bQh46Ddm-5ruJ5UZl0Re-5" value="UNAA Competitions" style="rounded=1;whiteSpace=wrap;html=1;fillColor=default;fontColor=#000000;fontStyle=0;gradientColor=none;align=left;spacingLeft=3;" vertex="1" parent="1">
          <mxGeometry x="320" y="175" width="200" height="30" as="geometry" />
        </mxCell>
        <mxCell id="bQh46Ddm-5ruJ5UZl0Re-6" value="CSNA Competitions" style="rounded=1;whiteSpace=wrap;html=1;fillColor=default;fontColor=#000000;fontStyle=0;gradientColor=none;align=left;spacingLeft=3;" vertex="1" parent="1">
          <mxGeometry x="320" y="225" width="200" height="30" as="geometry" />
        </mxCell>
        <mxCell id="bQh46Ddm-5ruJ5UZl0Re-8" value="Season planner" style="rounded=1;whiteSpace=wrap;html=1;fillColor=default;fontColor=#000000;fontStyle=0;gradientColor=none;align=left;spacingLeft=3;" vertex="1" parent="1">
          <mxGeometry x="320" y="304" width="200" height="30" as="geometry" />
        </mxCell>
        <mxCell id="bQh46Ddm-5ruJ5UZl0Re-16" style="edgeStyle=orthogonalEdgeStyle;rounded=0;orthogonalLoop=1;jettySize=auto;html=1;entryX=1;entryY=0.5;entryDx=0;entryDy=0;curved=1;startArrow=classic;startFill=1;endArrow=none;endFill=0;exitX=0;exitY=0.5;exitDx=0;exitDy=0;" edge="1" parent="1" source="bQh46Ddm-5ruJ5UZl0Re-8" target="bQh46Ddm-5ruJ5UZl0Re-2">
          <mxGeometry relative="1" as="geometry">
            <mxPoint x="330" y="245" as="sourcePoint" />
            <mxPoint x="270" y="170" as="targetPoint" />
          </mxGeometry>
        </mxCell>
        <mxCell id="bQh46Ddm-5ruJ5UZl0Re-17" value="Gyms" style="rounded=1;whiteSpace=wrap;html=1;fillColor=default;fontColor=#000000;fontStyle=0;gradientColor=none;align=left;spacingLeft=3;" vertex="1" parent="1">
          <mxGeometry x="320" y="360" width="200" height="30" as="geometry" />
        </mxCell>
        <mxCell id="bQh46Ddm-5ruJ5UZl0Re-18" value="Hotels" style="rounded=1;whiteSpace=wrap;html=1;fillColor=default;fontColor=#000000;fontStyle=0;gradientColor=none;align=left;spacingLeft=3;" vertex="1" parent="1">
          <mxGeometry x="320" y="460" width="200" height="30" as="geometry" />
        </mxCell>
        <mxCell id="bQh46Ddm-5ruJ5UZl0Re-19" value="Gym Aliases" style="rounded=1;whiteSpace=wrap;html=1;fillColor=default;fontColor=#000000;fontStyle=0;gradientColor=none;align=left;spacingLeft=3;" vertex="1" parent="1">
          <mxGeometry x="320" y="410" width="200" height="30" as="geometry" />
        </mxCell>
        <mxCell id="bQh46Ddm-5ruJ5UZl0Re-20" style="edgeStyle=orthogonalEdgeStyle;rounded=0;orthogonalLoop=1;jettySize=auto;html=1;entryX=1;entryY=0.5;entryDx=0;entryDy=0;startArrow=classic;startFill=1;endArrow=none;endFill=0;curved=1;exitX=0;exitY=0.5;exitDx=0;exitDy=0;" edge="1" parent="1" source="bQh46Ddm-5ruJ5UZl0Re-19" target="bQh46Ddm-5ruJ5UZl0Re-1">
          <mxGeometry relative="1" as="geometry">
            <mxPoint x="330" y="515" as="sourcePoint" />
            <mxPoint x="270" y="465" as="targetPoint" />
          </mxGeometry>
        </mxCell>
        <mxCell id="bQh46Ddm-5ruJ5UZl0Re-21" value="Competition attendance data" style="rounded=1;whiteSpace=wrap;html=1;fillColor=default;fontColor=#000000;fontStyle=0;gradientColor=none;align=left;spacingLeft=3;" vertex="1" parent="1">
          <mxGeometry x="320" y="510" width="200" height="30" as="geometry" />
        </mxCell>
      </root>
    </mxGraphModel>
  </diagram>
</mxfile>
